<svg fill="none" height="262" viewBox="0 0 959 262" width="959" xmlns="http://www.w3.org/2000/svg" xmlns:xlink="http://www.w3.org/1999/xlink"><clipPath id="a"><path d="m37 .066406h885v232h-885z"/></clipPath><path d="m0 2h959v260h-959z" fill="#191819"/><g clip-path="url(#a)" fill="#e2e2e2"><path d="m48.8164 49.6406h17.7734v53.0274c7.6823-5.599 15.8855-8.3985 24.6094-8.3985 11.3928 0 20.7028 4.2969 27.9298 12.8905 7.226 8.594 10.84 19.629 10.84 33.106 0 14.453-4.33 25.976-12.989 34.57-8.593 8.529-20.1167 12.793-34.5698 12.793-5.7943 0-11.9141-.619-18.3594-1.856-6.3802-1.237-11.4584-2.799-15.2344-4.687zm17.7734 70.0194v48.633c6.0547 1.823 12.2722 2.734 18.6524 2.734 7.8776 0 14.2904-2.799 19.2378-8.398 5.013-5.599 7.52-12.793 7.52-21.582 0-8.919-2.344-16.179-7.031-21.777-4.623-5.599-10.6773-8.399-18.1643-8.399-6.6406 0-13.3789 2.93-20.2149 8.789zm74.5482-70.0194h17.774v136.4254h-17.774zm43.885 8.7891c2.929 0 5.436 1.0091 7.519 3.0273 2.084 2.0183 3.125 4.4922 3.125 7.4219 0 2.8646-1.041 5.3385-3.125 7.4219-2.083 2.0833-4.59 3.125-7.519 3.125-2.735 0-5.144-1.0417-7.227-3.125-2.083-2.1485-3.125-4.6224-3.125-7.4219 0-2.7344 1.042-5.1432 3.125-7.2266 2.083-2.1484 4.492-3.2226 7.227-3.2226zm-8.789 37.793h17.773v89.8433h-17.773zm52.478 0v11.4253c7.942-8.7886 16.959-13.1832 27.05-13.1832 5.599 0 10.808 1.4649 15.625 4.3946 4.818 2.8646 8.464 6.8356 10.938 11.9136 2.539 5.013 3.809 12.989 3.809 23.926v51.367h-17.774v-51.171c0-9.18-1.4-15.723-4.199-19.629-2.8-3.972-7.487-5.957-14.063-5.957-8.398 0-15.527 4.199-21.386 12.597v64.16h-18.164v-89.8433zm131.775 0h21.191l-38.379 44.0433 46.192 45.8h-23.828l-45.02-45.8zm-58.399-46.5821h17.774v136.4254h-17.774z"/><path d="m724.104 58.3633c2.93 0 5.436 1.0091 7.519 3.0273 2.084 2.0183 3.125 4.4922 3.125 7.4219 0 2.8646-1.041 5.3385-3.125 7.4219-2.083 2.0833-4.589 3.125-7.519 3.125-2.734 0-5.143-1.0417-7.227-3.125-2.083-2.1485-3.125-4.6224-3.125-7.4219 0-2.7344 1.042-5.1432 3.125-7.2266 2.084-2.1484 4.493-3.2226 7.227-3.2226zm-8.789 37.7929h17.773v89.8438h-17.773zm53.578 0v11.4258c7.943-8.789 16.96-13.1836 27.051-13.1836 5.599 0 10.807 1.4649 15.625 4.3946 4.817 2.865 8.463 6.836 10.937 11.914 2.539 5.013 3.809 12.988 3.809 23.926v51.367h-17.774v-51.172c0-9.18-1.399-15.723-4.199-19.629-2.799-3.971-7.487-5.957-14.062-5.957-8.399 0-15.528 4.199-21.387 12.598v64.16h-18.164v-89.8438zm141.859 68.8478v17.578c-8.919 3.32-17.643 4.98-26.171 4.98-14.063 0-25.293-4.166-33.692-12.5-8.333-8.333-12.5-19.498-12.5-33.496 0-14.127 4.069-25.52 12.207-34.179 8.138-8.6591 18.848-12.9886 32.129-12.9886 4.622 0 8.757.4558 12.402 1.3672 3.711.8464 8.269 2.474 13.672 4.8824v18.946c-8.984-5.729-17.317-8.594-25-8.594-8.008 0-14.583 2.832-19.726 8.496-5.144 5.599-7.715 12.761-7.715 21.484 0 9.18 2.767 16.472 8.301 21.875 5.599 5.404 13.118 8.106 22.558 8.106 6.836 0 14.681-1.986 23.535-5.957z"/><path clip-rule="evenodd" d="m672.809 185.844h-22.181l40.29-43.945-48.502-45.899h25.061l47.303 45.85z" fill-rule="evenodd"/><path d="m417.924 120.382h34.067c1.494 0 2.565.299 3.212.896.648.598.971 1.37.971 2.316 0 .897-.323 1.644-.971 2.241-.647.598-1.718.897-3.212.897h-34.067v41.761c0 3.636 1.445 6.674 4.333 9.114 2.939 2.441 7.222 3.661 12.85 3.661 4.233 0 8.815-.622 13.746-1.868 4.931-1.295 8.766-2.739 11.505-4.333.996-.647 1.818-.971 2.465-.971.797 0 1.494.324 2.092.971.598.598.897 1.32.897 2.167 0 .747-.324 1.444-.972 2.092-1.593 1.643-5.478 3.436-11.654 5.379-6.126 1.892-12.003 2.838-17.631 2.838-7.321 0-13.148-1.718-17.481-5.154-4.333-3.437-6.5-8.069-6.5-13.896v-41.761h-11.579c-1.495 0-2.565-.299-3.213-.897-.647-.597-.971-1.369-.971-2.315 0-.897.324-1.644.971-2.242.648-.597 1.718-.896 3.213-.896h11.579v-18.528c0-1.494.299-2.5644.897-3.2119.597-.6475 1.344-.9712 2.241-.9712.946 0 1.718.3237 2.316.9712.597.6475.896 1.7179.896 3.2119zm114.919 64.696v-9.039c-9.115 7.669-18.851 11.504-29.211 11.504-7.52 0-13.397-1.892-17.631-5.677-4.233-3.835-6.35-8.517-6.35-14.045 0-6.076 2.789-11.381 8.367-15.913 5.579-4.532 13.722-6.798 24.43-6.798 2.888 0 6.026.199 9.413.598 3.386.348 7.047.921 10.982 1.718v-10.16c0-3.437-1.594-6.425-4.782-8.965-3.187-2.54-7.968-3.81-14.343-3.81-4.881 0-11.729 1.419-20.545 4.258-1.594.498-2.615.747-3.063.747-.797 0-1.494-.299-2.092-.896-.547-.598-.821-1.345-.821-2.242 0-.846.249-1.519.747-2.017.697-.747 3.511-1.768 8.442-3.063 7.769-2.091 13.646-3.137 17.631-3.137 7.918 0 14.094 1.967 18.527 5.901 4.432 3.885 6.649 8.293 6.649 13.224v41.537h8.367c1.544 0 2.64.299 3.287.896.648.548.971 1.295.971 2.241 0 .897-.323 1.644-.971 2.242-.647.597-1.743.896-3.287.896zm0-31.227c-2.939-.847-6.052-1.47-9.339-1.868-3.287-.399-6.748-.598-10.384-.598-9.114 0-16.236 1.968-21.366 5.902-3.885 2.939-5.827 6.45-5.827 10.534 0 3.785 1.469 6.972 4.407 9.562 2.989 2.59 7.322 3.885 12.999 3.885 5.429 0 10.459-1.071 15.091-3.212 4.682-2.192 9.488-5.653 14.419-10.385zm87.052-21.964v-11.505h14.718c1.494 0 2.565.299 3.212.896.647.598.971 1.37.971 2.316 0 .897-.324 1.644-.971 2.241-.647.598-1.718.897-3.212.897h-8.442v62.679c0 4.184-.897 7.919-2.69 11.206-1.195 2.192-3.187 4.458-5.976 6.799-2.789 2.34-5.329 4.009-7.62 5.005s-5.354 1.494-9.189 1.494h-17.781c-1.494 0-2.565-.299-3.212-.896-.648-.548-.971-1.295-.971-2.242 0-.946.323-1.718.971-2.316.647-.597 1.718-.896 3.212-.896l18.005.075c3.685 0 6.997-.947 9.936-2.839 2.988-1.893 5.453-4.657 7.396-8.293 1.095-2.091 1.643-4.756 1.643-7.993v-18.827c-6.723 9.214-15.389 13.821-25.998 13.821-8.616 0-16.062-3.187-22.337-9.562-6.226-6.425-9.339-14.145-9.339-23.159 0-9.015 3.113-16.71 9.339-23.085 6.275-6.375 13.721-9.562 22.337-9.562 10.609 0 19.275 4.582 25.998 13.746zm0 18.901c0-7.371-2.54-13.597-7.62-18.677-5.03-5.08-11.056-7.62-18.079-7.62-7.022 0-13.049 2.565-18.079 7.695-5.03 5.08-7.545 11.28-7.545 18.602 0 7.371 2.515 13.621 7.545 18.751 5.03 5.08 11.057 7.62 18.079 7.62 7.023 0 13.049-2.54 18.079-7.62 5.08-5.13 7.62-11.38 7.62-18.751z"/></g></svg>